<?xml version="1.0" encoding="utf-8"?>
<!-- Generator: Adobe Illustrator 16.0.4, SVG Export Plug-In . SVG Version: 6.00 Build 0)  -->
<!DOCTYPE svg PUBLIC "-//W3C//DTD SVG 1.1//EN" "http://www.w3.org/Graphics/SVG/1.1/DTD/svg11.dtd">
<svg version="1.1" id="Layer_1" xmlns="http://www.w3.org/2000/svg" xmlns:xlink="http://www.w3.org/1999/xlink" x="0px" y="0px"
	 width="308px" height="308px" viewBox="0 0 308 308" enable-background="new 0 0 308 308" xml:space="preserve">
<g>
	<rect fill="#D7C6B5" width="38.5" height="38.5"/>
	<rect x="38.5" y="38.5" fill="#D7C6B5" width="38.5" height="38.5"/>
	<rect x="77" fill="#D7C6B5" width="38.5" height="38.5"/>
	<rect x="115.5" y="38.5" fill="#D7C6B5" width="38.5" height="38.5"/>
	<rect x="154" fill="#D7C6B5" width="38.5" height="38.5"/>
	<rect x="192.5" y="38.5" fill="#D7C6B5" width="38.5" height="38.5"/>
	<rect x="231" fill="#D7C6B5" width="38.5" height="38.5"/>
	<rect x="269.5" y="38.5" fill="#D7C6B5" width="38.5" height="38.5"/>
	<rect y="77" fill="#D7C6B5" width="38.5" height="38.5"/>
	<rect x="38.5" y="115.5" fill="#D7C6B5" width="38.5" height="38.5"/>
	<rect x="77" y="77" fill="#D7C6B5" width="38.5" height="38.5"/>
	<rect x="115.5" y="115.5" fill="#D7C6B5" width="38.5" height="38.5"/>
	<rect x="154" y="77" fill="#D7C6B5" width="38.5" height="38.5"/>
	<rect x="192.5" y="115.5" fill="#D7C6B5" width="38.5" height="38.5"/>
	<rect x="231" y="77" fill="#D7C6B5" width="38.5" height="38.5"/>
	<rect x="269.5" y="115.5" fill="#D7C6B5" width="38.5" height="38.5"/>
	<rect y="154" fill="#D7C6B5" width="38.5" height="38.5"/>
	<rect x="38.5" y="192.5" fill="#D7C6B5" width="38.5" height="38.5"/>
	<rect x="77" y="154" fill="#D7C6B5" width="38.5" height="38.5"/>
	<rect x="115.5" y="192.5" fill="#D7C6B5" width="38.5" height="38.5"/>
	<rect x="154" y="154" fill="#D7C6B5" width="38.5" height="38.5"/>
	<rect x="192.5" y="192.5" fill="#D7C6B5" width="38.5" height="38.5"/>
	<rect x="231" y="154" fill="#D7C6B5" width="38.5" height="38.5"/>
	<rect x="269.5" y="192.5" fill="#D7C6B5" width="38.5" height="38.5"/>
	<rect y="231" fill="#D7C6B5" width="38.5" height="38.5"/>
	<rect x="38.5" y="269.5" fill="#D7C6B5" width="38.5" height="38.5"/>
	<rect x="77" y="231" fill="#D7C6B5" width="38.5" height="38.5"/>
	<rect x="115.5" y="269.5" fill="#D7C6B5" width="38.5" height="38.5"/>
	<rect x="154" y="231" fill="#D7C6B5" width="38.5" height="38.5"/>
	<rect x="192.5" y="269.5" fill="#D7C6B5" width="38.5" height="38.5"/>
	<rect x="231" y="231" fill="#D7C6B5" width="38.5" height="38.5"/>
	<rect x="269.5" y="269.5" fill="#D7C6B5" width="38.5" height="38.5"/>
</g>
<g>
	<rect x="38.5" width="38.5" height="38.5"/>
	<rect y="38.5" width="38.5" height="38.5"/>
	<rect x="115.5" width="38.5" height="38.5"/>
	<rect x="77" y="38.5" width="38.5" height="38.5"/>
	<rect x="192.5" width="38.5" height="38.5"/>
	<rect x="154" y="38.5" width="38.5" height="38.5"/>
	<rect x="269.5" width="38.5" height="38.5"/>
	<rect x="231" y="38.5" width="38.5" height="38.5"/>
	<rect x="38.5" y="77" width="38.5" height="38.5"/>
	<rect y="115.5" width="38.5" height="38.5"/>
	<rect x="115.5" y="77" width="38.5" height="38.5"/>
	<rect x="77" y="115.5" width="38.5" height="38.5"/>
	<rect x="192.5" y="77" width="38.5" height="38.5"/>
	<rect x="154" y="115.5" width="38.5" height="38.5"/>
	<rect x="269.5" y="77" width="38.5" height="38.5"/>
	<rect x="231" y="115.5" width="38.5" height="38.5"/>
	<rect x="38.5" y="154" width="38.5" height="38.5"/>
	<rect y="192.5" width="38.5" height="38.5"/>
	<rect x="115.5" y="154" width="38.5" height="38.5"/>
	<rect x="77" y="192.5" width="38.5" height="38.5"/>
	<rect x="192.5" y="154" width="38.5" height="38.5"/>
	<rect x="154" y="192.5" width="38.5" height="38.5"/>
	<rect x="269.5" y="154" width="38.5" height="38.5"/>
	<rect x="231" y="192.5" width="38.5" height="38.5"/>
	<rect x="38.5" y="231" width="38.5" height="38.5"/>
	<rect y="269.5" width="38.5" height="38.5"/>
	<rect x="115.5" y="231" width="38.5" height="38.5"/>
	<rect x="77" y="269.5" width="38.5" height="38.5"/>
	<rect x="192.5" y="231" width="38.5" height="38.5"/>
	<rect x="154" y="269.5" width="38.5" height="38.5"/>
	<rect x="269.5" y="231" width="38.5" height="38.5"/>
	<rect x="231" y="269.5" width="38.5" height="38.5"/>
</g>
</svg>
